<svg viewBox="0 0 1400 1100" xmlns="http://www.w3.org/2000/svg">
  <!-- Background -->
  <defs>
    <linearGradient id="desk-gradient" x1="0%" y1="0%" x2="0%" y2="100%">
      <stop offset="0%" style="stop-color:#ECF0F1;stop-opacity:1" />
      <stop offset="100%" style="stop-color:#BDC3C7;stop-opacity:1" />
    </linearGradient>
    
    <filter id="shadow-strong">
      <feDropShadow dx="3" dy="3" stdDeviation="5" flood-opacity="0.4"/>
    </filter>
    
    <filter id="shadow-light">
      <feDropShadow dx="1" dy="1" stdDeviation="2" flood-opacity="0.2"/>
    </filter>
    
    <pattern id="breadboard-holes" x="0" y="0" width="15" height="15" patternUnits="userSpaceOnUse">
      <circle cx="7.5" cy="7.5" r="2" fill="#8B7355"/>
    </pattern>
  </defs>
  
  <rect width="1400" height="1100" fill="url(#desk-gradient)"/>
  
  <!-- Title Section -->
  <rect x="50" y="20" width="1300" height="100" fill="white" stroke="#2C3E50" stroke-width="4" rx="12" filter="url(#shadow-strong)"/>
  <text x="700" y="60" font-size="34" font-weight="bold" text-anchor="middle" fill="#2c3e50">
    Hardware Setup - Complete Physical Component Layout
  </text>
  <text x="700" y="95" font-size="17" text-anchor="middle" fill="#7f8c8d">
    Top View • Arduino Nano 33 BLE Rev2 • HC-SR04 Ultrasonic Sensor • All Components
  </text>
  
  <!-- Desk/Table Surface -->
  <rect x="0" y="140" width="1400" height="960" fill="#D7CCC8" opacity="0.3"/>
  
  <!-- Sensor Mount System (Top) -->
  <g id="sensor-mount-system">
    <!-- Support structure -->
    <rect x="500" y="160" width="450" height="28" fill="#8B7355" stroke="#654321" stroke-width="3" rx="5" filter="url(#shadow-strong)"/>
    <text x="725" y="178" font-size="13" font-weight="bold" text-anchor="middle" fill="white">
      SENSOR MOUNTING BRACKET
    </text>
    
    <!-- Vertical support posts -->
    <rect x="520" y="188" width="30" height="180" fill="#A0826D" stroke="#654321" stroke-width="3" rx="4" filter="url(#shadow-light)"/>
    <rect x="900" y="188" width="30" height="180" fill="#A0826D" stroke="#654321" stroke-width="3" rx="4" filter="url(#shadow-light)"/>
    
    <!-- Small support brackets -->
    <rect x="520" y="188" width="30" height="20" fill="#654321" rx="3"/>
    <rect x="900" y="188" width="30" height="20" fill="#654321" rx="3"/>
    
    <!-- HC-SR04 Sensor mounted on bracket -->
    <rect x="600" y="160" width="250" height="130" fill="#34495E" stroke="#2C3E50" stroke-width="4" rx="12" filter="url(#shadow-strong)"/>
    
    <text x="725" y="200" font-size="22" font-weight="bold" text-anchor="middle" fill="white">
      HC-SR04
    </text>
    <text x="725" y="225" font-size="15" text-anchor="middle" fill="#BDC3C7">
      Ultrasonic Sensor
    </text>
    
    <!-- Sensor transducers -->
    <circle cx="675" cy="255" r="22" fill="#95A5A6" stroke="#7F8C8D" stroke-width="3"/>
    <circle cx="775" cy="255" r="22" fill="#95A5A6" stroke="#7F8C8D" stroke-width="3"/>
    <circle cx="675" cy="255" r="15" fill="#7F8C8D"/>
    <circle cx="775" cy="255" r="15" fill="#7F8C8D"/>
    
    <!-- Wiring from sensor -->
    <rect x="710" y="290" width="30" height="12" fill="#FFD700" rx="2"/>
    
    <!-- Direction indicator -->
    <text x="725" y="320" font-size="14" font-weight="bold" text-anchor="middle" fill="#E74C3C">
      ↓ FACING DOWN ↓
    </text>
    
    <!-- Label -->
    <rect x="550" y="140" width="350" height="20" fill="#FFF3CD" stroke="#FFC107" stroke-width="2" rx="5"/>
    <text x="725" y="154" font-size="11" font-weight="bold" text-anchor="middle" fill="#856404">
      Mounted ~25cm above glass surface
    </text>
  </g>
  
  <!-- Ultrasonic measurement beam -->
  <g id="measurement-beam">
    <defs>
      <radialGradient id="beam-gradient">
        <stop offset="0%" style="stop-color:#3498DB;stop-opacity:0.3" />
        <stop offset="100%" style="stop-color:#3498DB;stop-opacity:0" />
      </radialGradient>
    </defs>
    <path d="M 725 290 L 675 370 L 775 370 Z" fill="url(#beam-gradient)"/>
    <line x1="725" y1="290" x2="725" y2="370" stroke="#3498DB" stroke-width="3" stroke-dasharray="8,4" opacity="0.7"/>
  </g>
  
  <!-- Glass/Container -->
  <g id="glass-container">
    <rect x="600" y="370" width="250" height="220" fill="#87CEEB" fill-opacity="0.25" stroke="#4682B4" stroke-width="5" rx="8" filter="url(#shadow-strong)"/>
    
    <!-- Water inside -->
    <rect x="608" y="450" width="234" height="135" fill="#1E90FF" fill-opacity="0.35"/>
    <path d="M 608 450 Q 640 445, 675 450 T 740 450 T 805 450 T 842 450" 
          stroke="#1E90FF" stroke-width="3" fill="none"/>
    
    <!-- Glass label -->
    <text x="725" y="410" font-size="18" font-weight="bold" text-anchor="middle" fill="#2C3E50">
      GLASS
    </text>
    <text x="725" y="433" font-size="13" text-anchor="middle" fill="#4682B4">
      Water Container
    </text>
    
    <!-- Distance measurement lines -->
    <g id="distance-indicators">
      <!-- Full level -->
      <line x1="560" y1="375" x2="560" y2="455" stroke="#27AE60" stroke-width="3"/>
      <line x1="555" y1="375" x2="565" y1="375" stroke="#27AE60" stroke-width="3"/>
      <line x1="555" y1="455" x2="565" y2="455" stroke="#27AE60" stroke-width="3"/>
      <text x="540" y="420" font-size="12" font-weight="bold" fill="#27AE60" text-anchor="end">3-6cm</text>
      <text x="540" y="435" font-size="10" fill="#27AE60" text-anchor="end">FULL</text>
      
      <!-- Not full level -->
      <line x1="880" y1="375" x2="880" y2="585" stroke="#E74C3C" stroke-width="3"/>
      <line x1="875" y1="375" x2="885" y2="375" stroke="#E74C3C" stroke-width="3"/>
      <line x1="875" y1="585" x2="885" y2="585" stroke="#E74C3C" stroke-width="3"/>
      <text x="905" y="485" font-size="12" font-weight="bold" fill="#E74C3C">8-12cm</text>
      <text x="905" y="500" font-size="10" fill="#E74C3C">NOT FULL</text>
    </g>
  </g>
  
  <!-- Breadboard with Components -->
  <g id="breadboard-assembly">
    <!-- Main breadboard -->
    <rect x="150" y="650" width="700" height="380" fill="#F4E4C1" stroke="#C19A6B" stroke-width="5" rx="8" filter="url(#shadow-strong)"/>
    
    <!-- Breadboard holes pattern -->
    <rect x="165" y="665" width="670" height="350" fill="url(#breadboard-holes)"/>
    
    <!-- Power rails (red/blue strips) -->
    <rect x="165" y="665" width="670" height="18" fill="#FF6B6B" opacity="0.4"/>
    <rect x="165" y="683" width="670" height="18" fill="#3498DB" opacity="0.4"/>
    <rect x="165" y="997" width="670" height="18" fill="#FF6B6B" opacity="0.4"/>
    
    <!-- Breadboard label -->
    <text x="500" y="638" font-size="20" font-weight="bold" text-anchor="middle" fill="#C19A6B">
      BREADBOARD
    </text>
    
    <!-- Arduino Nano 33 BLE Rev2 on breadboard -->
    <g id="arduino-nano">
      <rect x="220" y="740" width="280" height="130" fill="#00979D" stroke="#006064" stroke-width="4" rx="10" filter="url(#shadow-strong)"/>
      
      <text x="360" y="775" font-size="20" font-weight="bold" text-anchor="middle" fill="white">
        Arduino Nano
      </text>
      <text x="360" y="800" font-size="16" text-anchor="middle" fill="white">
        33 BLE Rev2
      </text>
      <text x="360" y="825" font-size="12" text-anchor="middle" fill="#BDC3C7">
        Microcontroller
      </text>
      
      <!-- USB port -->
      <rect x="212" y="790" width="15" height="35" fill="#C0C0C0" stroke="#808080" stroke-width="2" rx="2"/>
      <text x="205" y="810" font-size="10" fill="#555" transform="rotate(-90 205 810)">USB</text>
      
      <!-- Pin rows -->
      <g id="arduino-pins">
        <!-- Top pins -->
        <circle cx="240" cy="750" r="4" fill="#FFD700"/>
        <circle cx="260" cy="750" r="4" fill="#FFD700"/>
        <circle cx="280" cy="750" r="4" fill="#FFD700"/>
        <circle cx="300" cy="750" r="4" fill="#FFD700"/>
        <circle cx="320" cy="750" r="4" fill="#FFD700"/>
        <circle cx="340" cy="750" r="4" fill="#FFD700"/>
        <circle cx="360" cy="750" r="4" fill="#FFD700"/>
        <circle cx="380" cy="750" r="4" fill="#FFD700"/>
        <circle cx="400" cy="750" r="4" fill="#FFD700"/>
        <circle cx="420" cy="750" r="4" fill="#FFD700"/>
        <circle cx="440" cy="750" r="4" fill="#FFD700"/>
        <circle cx="460" cy="750" r="4" fill="#FFD700"/>
        <circle cx="480" cy="750" r="4" fill="#FFD700"/>
        
        <!-- Bottom pins -->
        <circle cx="240" cy="860" r="4" fill="#FFD700"/>
        <circle cx="260" cy="860" r="4" fill="#FFD700"/>
        <circle cx="280" cy="860" r="4" fill="#FFD700"/>
        <circle cx="300" cy="860" r="4" fill="#FFD700"/>
        <circle cx="320" cy="860" r="4" fill="#FFD700"/>
        <circle cx="340" cy="860" r="4" fill="#FFD700"/>
        <circle cx="360" cy="860" r="4" fill="#FFD700"/>
        <circle cx="380" cy="860" r="4" fill="#FFD700"/>
        <circle cx="400" cy="860" r="4" fill="#FFD700"/>
        <circle cx="420" cy="860" r="4" fill="#FFD700"/>
        <circle cx="440" cy="860" r="4" fill="#FFD700"/>
        <circle cx="460" cy="860" r="4" fill="#FFD700"/>
        <circle cx="480" cy="860" r="4" fill="#FFD700"/>
      </g>
      
      <!-- Pin labels -->
      <text x="260" y="735" font-size="9" fill="white" text-anchor="middle">D9</text>
      <text x="280" y="735" font-size="9" fill="white" text-anchor="middle">D10</text>
      <text x="300" y="735" font-size="9" fill="white" text-anchor="middle">D8</text>
      <text x="460" y="735" font-size="9" fill="white" text-anchor="middle">5V</text>
      <text x="440" y="735" font-size="9" fill="white" text-anchor="middle">GND</text>
    </g>
    
    <!-- Voltage Divider Circuit -->
    <g id="voltage-divider-components">
      <rect x="530" y="760" width="130" height="100" fill="#ECF0F1" stroke="#95A5A6" stroke-width="3" rx="6"/>
      <text x="595" y="785" font-size="14" font-weight="bold" text-anchor="middle" fill="#2C3E50">
        Voltage Divider
      </text>
      
      <!-- Resistor 1 -->
      <rect x="555" y="800" width="80" height="18" fill="#D4A574" stroke="#8B6F47" stroke-width="2" rx="3"/>
      <text x="595" y="812" font-size="11" font-weight="bold" text-anchor="middle">10kΩ</text>
      
      <!-- Connection point -->
      <circle cx="595" cy="830" r="6" fill="#E74C3C" stroke="#C0392B" stroke-width="2"/>
      
      <!-- Resistor 2 -->
      <rect x="555" y="840" width="80" height="18" fill="#D4A574" stroke="#8B6F47" stroke-width="2" rx="3"/>
      <text x="595" y="852" font-size="11" font-weight="bold" text-anchor="middle">4.7kΩ</text>
      
      <text x="668" y="833" font-size="9" fill="#E74C3C" font-weight="bold">→ D10</text>
    </g>
    
    <!-- Transistor Circuit -->
    <g id="transistor-circuit">
      <circle cx="700" cy="900" r="30" fill="#2C3E50" stroke="#000" stroke-width="3" filter="url(#shadow-light)"/>
      <line x1="690" y1="890" x2="710" y2="890" stroke="white" stroke-width="3"/>
      <line x1="700" y1="880" x2="700" y2="920" stroke="white" stroke-width="3"/>
      
      <text x="700" y="950" font-size="13" font-weight="bold" text-anchor="middle" fill="#2C3E50">
        NPN Transistor
      </text>
      
      <!-- Base resistor -->
      <rect x="620" y="893" width="60" height="14" fill="#D4A574" stroke="#8B6F47" stroke-width="2" rx="2"/>
      <text x="650" y="903" font-size="9" font-weight="bold" text-anchor="middle">1kΩ</text>
      <text x="610" y="903" font-size="9" fill="#2C3E50" text-anchor="end">D8 →</text>
    </g>
    
    <!-- Buzzer -->
    <g id="buzzer-component">
      <ellipse cx="720" cy="770" rx="45" ry="60" fill="#2C3E50" stroke="#000" stroke-width="3" filter="url(#shadow-strong)"/>
      <circle cx="720" cy="770" r="40" fill="#34495E"/>
      <text x="720" y="780" font-size="24" font-weight="bold" text-anchor="middle" fill="white">♪</text>
      
      <text x="720" y="850" font-size="14" font-weight="bold" text-anchor="middle" fill="#2C3E50">
        Active Buzzer
      </text>
      <text x="720" y="868" font-size="11" text-anchor="middle" fill="#555">
        5V Alert Device
      </text>
    </g>
  </g>
  
  <!-- Jumper Wires -->
  <g id="jumper-wires">
    <!-- Sensor to breadboard wires -->
    <path d="M 680 290 Q 550 450, 280 740" stroke="#FF6B6B" stroke-width="4" fill="none" opacity="0.7"/>
    <path d="M 710 290 Q 580 470, 260 750" stroke="#FFD700" stroke-width="4" fill="none" opacity="0.7"/>
    <path d="M 740 290 Q 650 490, 595 760" stroke="#3498DB" stroke-width="4" fill="none" opacity="0.7"/>
    <path d="M 770 290 Q 690 510, 300 740" stroke="#000000" stroke-width="4" fill="none" opacity="0.7"/>
    
    <text x="600" y="530" font-size="12" fill="#7f8c8d" font-style="italic">
      Jumper wires connecting
    </text>
    <text x="600" y="548" font-size="12" fill="#7f8c8d" font-style="italic">
      sensor to Arduino
    </text>
  </g>
  
  <!-- Laptop Computer -->
  <g id="laptop-computer">
    <rect x="950" y="700" width="400" height="300" fill="#34495E" stroke="#2C3E50" stroke-width="4" rx="12" filter="url(#shadow-strong)"/>
    <rect x="970" y="720" width="360" height="240" fill="#1E3A5F" stroke="#2C3E50" stroke-width="3" rx="5"/>
    
    <!-- Screen content -->
    <text x="1150" y="760" font-size="18" font-weight="bold" text-anchor="middle" fill="#00FF00">
      Arduino IDE
    </text>
    <rect x="990" y="780" width="320" height="160" fill="#000" rx="3"/>
    
    <text x="1000" y="805" font-size="13" font-family="monospace" fill="#00FF00">
      Serial Monitor
    </text>
    <text x="1000" y="830" font-size="12" font-family="monospace" fill="#00FF00">
      &gt; Distance: 4.8 cm
    </text>
    <text x="1000" y="850" font-size="12" font-family="monospace" fill="#00FF00">
      &gt; Classification: glass_full
    </text>
    <text x="1000" y="870" font-size="12" font-family="monospace" fill="#00FF00">
      &gt; Buzzer: ON
    </text>
    <text x="1000" y="890" font-size="12" font-family="monospace" fill="#00FF00">
      &gt; Inference time: 15ms
    </text>
    <text x="1000" y="910" font-size="12" font-family="monospace" fill="#27AE60">
      &gt; Status: Running...
    </text>
    
    <!-- Laptop base -->
    <rect x="930" y="1000" width="440" height="15" fill="#2C3E50" rx="3"/>
    
    <text x="1150" y="1040" font-size="16" font-weight="bold" text-anchor="middle" fill="#2C3E50">
      Development Computer
    </text>
  </g>
  
  <!-- USB Cable -->
  <g id="usb-cable">
    <path d="M 227 805 Q 500 850, 950 850" 
          stroke="#000000" stroke-width="6" fill="none" filter="url(#shadow-light)"/>
    <path d="M 227 805 Q 500 850, 950 850" 
          stroke="#2C3E50" stroke-width="4" fill="none"/>
    
    <text x="600" y="870" font-size="14" font-weight="bold" fill="#2C3E50">
      USB Cable
    </text>
    <text x="600" y="888" font-size="11" fill="#555">
      (Power + Data + Programming)
    </text>
  </g>
  
  <!-- Component Legend -->
  <g id="component-legend">
    <rect x="950" y="160" width="400" height="230" fill="white" stroke="#3498DB" stroke-width="4" rx="10" filter="url(#shadow-strong)"/>
    
    <text x="1150" y="195" font-size="18" font-weight="bold" text-anchor="middle" fill="#2C3E50">
      📦 System Components
    </text>
    
    <text x="970" y="225" font-size="13" fill="#2C3E50">
      ✓ HC-SR04 Ultrasonic Distance Sensor
    </text>
    <text x="970" y="248" font-size="13" fill="#2C3E50">
      ✓ Arduino Nano 33 BLE Rev2 Board
    </text>
    <text x="970" y="271" font-size="13" fill="#2C3E50">
      ✓ Breadboard (Half-size or Full)
    </text>
    <text x="970" y="294" font-size="13" fill="#2C3E50">
      ✓ Voltage Divider (10kΩ + 4.7kΩ)
    </text>
    <text x="970" y="317" font-size="13" fill="#2C3E50">
      ✓ NPN Transistor (BC547 or 2N2222)
    </text>
    <text x="970" y="340" font-size="13" fill="#2C3E50">
      ✓ Active Buzzer (5V)
    </text>
    <text x="970" y="363" font-size="13" fill="#2C3E50">
      ✓ Jumper Wires (Male-to-Male)
    </text>
  </g>
  
  <!-- Power Indicator -->
  <g id="power-source">
    <rect x="100" y="900" width="40" height="70" fill="#FF6B6B" stroke="#C0392B" stroke-width="3" rx="5" filter="url(#shadow-light)"/>
    <rect x="108" y="893" width="24" height="15" fill="#FF6B6B" stroke="#C0392B" stroke-width="2" rx="3"/>
    
    <text x="120" y="992" font-size="13" font-weight="bold" text-anchor="middle" fill="#2C3E50">
      5V USB
    </text>
    <text x="120" y="1008" font-size="11" text-anchor="middle" fill="#555">
      Power
    </text>
  </g>
  
  <!-- Setup Instructions -->
  <g id="setup-instructions">
    <rect x="950" y="420" width="400" height="250" fill="#FFF3CD" stroke="#FFC107" stroke-width="4" rx="10" filter="url(#shadow-strong)"/>
    
    <text x="1150" y="455" font-size="18" font-weight="bold" text-anchor="middle" fill="#856404">
      🔧 Setup Instructions
    </text>
    
    <text x="970" y="485" font-size="12" font-weight="bold" fill="#856404">
      Step 1: Mount the sensor
    </text>
    <text x="985" y="503" font-size="11" fill="#555">
      • Position HC-SR04 facing downward
    </text>
    <text x="985" y="518" font-size="11" fill="#555">
      • Keep 20-30cm above glass surface
    </text>
    
    <text x="970" y="543" font-size="12" font-weight="bold" fill="#856404">
      Step 2: Wire the breadboard
    </text>
    <text x="985" y="561" font-size="11" fill="#555">
      • Connect all components as shown
    </text>
    <text x="985" y="576" font-size="11" fill="#555">
      • Use voltage divider for ECHO pin
    </text>
    
    <text x="970" y="601" font-size="12" font-weight="bold" fill="#856404">
      Step 3: Connect to computer
    </text>
    <text x="985" y="619" font-size="11" fill="#555">
      • USB cable from Arduino to laptop
    </text>
    <text x="985" y="634" font-size="11" fill="#555">
      • Upload code via Arduino IDE
    </text>
    
    <text x="970" y="659" font-size="12" font-weight="bold" fill="#856404">
      Step 4: Test the system
    </text>
    <text x="985" y="677" font-size="11" fill="#555">
      • Fill glass and verify readings
    </text>
  </g>
  
</svg>